<svg width="32" height="32" viewBox="0 0 32 32" fill="none" xmlns="http://www.w3.org/2000/svg">
<path d="M12.219 26.6622C11.7356 26.6622 11.4256 26.3593 11.4008 25.8587L11.0289 11.3567C11.0165 10.8693 11.3265 10.5532 11.8223 10.5532C12.281 10.5532 12.6033 10.8562 12.6157 11.3435L13.0124 25.8587C13.0248 26.3461 12.7025 26.6622 12.219 26.6622ZM16 26.6622C15.5166 26.6622 15.1818 26.3461 15.1818 25.8587V11.3567C15.1818 10.8693 15.5166 10.5532 16 10.5532C16.4835 10.5532 16.8306 10.8693 16.8306 11.3567V25.8587C16.8306 26.3461 16.4835 26.6622 16 26.6622ZM19.7934 26.6622C19.3099 26.6622 18.9876 26.3461 19 25.8587L19.3843 11.3567C19.3967 10.8562 19.719 10.5532 20.1777 10.5532C20.6736 10.5532 20.9835 10.8693 20.9711 11.3567L20.5993 25.8587C20.5744 26.3593 20.2645 26.6622 19.7934 26.6622ZM10.5579 7.35248H12.5289V4.53374C12.5289 3.78295 13.0248 3.2956 13.7686 3.2956H18.2066C18.9504 3.2956 19.4464 3.78295 19.4464 4.53374V7.35248H21.4174V4.40202C21.4174 2.49212 20.2521 1.33301 18.343 1.33301H13.6323C11.7232 1.33301 10.5579 2.49212 10.5579 4.40202V7.35248ZM4.92975 8.40621H27.0827C27.591 8.40621 28 7.9452 28 7.40516C28 6.86512 27.591 6.41729 27.0827 6.41729H4.92975C4.43389 6.41729 4 6.86512 4 7.40516C4 7.95838 4.43389 8.40621 4.92975 8.40621ZM10.3223 30.6663H21.6901C23.4628 30.6663 24.6529 29.4414 24.7397 27.5579L25.6075 8.12961H6.39257L7.27273 27.571C7.35951 29.4546 8.5248 30.6663 10.3223 30.6663Z" fill="white"/>
</svg>
