<svg width="121" height="120" viewBox="0 0 121 120" fill="none" xmlns="http://www.w3.org/2000/svg">
<path d="M60.5 15H25.5C22.8478 15 20.3043 16.0536 18.4289 17.9289C16.5536 19.8043 15.5 22.3478 15.5 25V95C15.5 97.6522 16.5536 100.196 18.4289 102.071C20.3043 103.946 22.8478 105 25.5 105H95.5C98.1522 105 100.696 103.946 102.571 102.071C104.446 100.196 105.5 97.6522 105.5 95V60" stroke="#4FC3F7" stroke-width="10" stroke-linecap="round" stroke-linejoin="round"/>
<path d="M92.375 13.1252C94.3641 11.136 97.0619 10.0186 99.875 10.0186C102.688 10.0186 105.386 11.136 107.375 13.1252C109.364 15.1143 110.482 17.8121 110.482 20.6252C110.482 23.4382 109.364 26.136 107.375 28.1252L62.31 73.1952C61.1227 74.3814 59.656 75.2497 58.045 75.7202L43.68 79.9202C43.2497 80.0456 42.7937 80.0532 42.3595 79.9419C41.9254 79.8307 41.5291 79.6048 41.2122 79.2879C40.8953 78.971 40.6694 78.5748 40.5582 78.1406C40.447 77.7065 40.4545 77.2504 40.58 76.8202L44.78 62.4552C45.2526 60.8454 46.1227 59.3804 47.31 58.1952L92.375 13.1252Z" stroke="#4FC3F7" stroke-width="10" stroke-linecap="round" stroke-linejoin="round"/>
</svg>
